<svg version="1.1" xmlns="http://www.w3.org/2000/svg" xmlns:xlink="http://www.w3.org/1999/xlink" width="170" height="33.71479" viewBox="0,0,170,33.71479"><g transform="translate(-155,-163.1426)"><g data-paper-data="{&quot;isPaintingLayer&quot;:true}" fill-rule="nonzero" stroke-linejoin="miter" stroke-miterlimit="10" stroke-dasharray="" stroke-dashoffset="0" style="mix-blend-mode: normal"><path d="M240,181.35207v-15.02632" fill="none" stroke="#cf5c23" stroke-width="0.5" stroke-linecap="round"/><text transform="translate(243.25002,182.49265) scale(0.1,0.1)" font-size="40" xml:space="preserve" fill="#000000" fill-rule="nonzero" stroke="none" stroke-width="1" stroke-linecap="butt" stroke-linejoin="miter" stroke-miterlimit="10" stroke-dasharray="" stroke-dashoffset="0" font-family="Sans Serif" font-weight="normal" text-anchor="start" style="mix-blend-mode: normal"><tspan x="0" dy="0">Torrejón de Ardoz Central</tspan></text><path d="M230,166.33891c0,-1.38071 1.11929,-2.5 2.5,-2.5c1.38071,0 2.5,1.11929 2.5,2.5c0,1.38071 -1.11929,2.5 -2.5,2.5c-1.38071,0 -2.5,-1.11929 -2.5,-2.5z" fill="#f96611" stroke="none" stroke-width="0.5" stroke-linecap="butt"/><text transform="translate(228.15799,167.4926) scale(0.1,0.1)" font-size="40" xml:space="preserve" data-paper-data="{&quot;index&quot;:null}" fill-opacity="0" fill="#000000" fill-rule="nonzero" stroke="none" stroke-width="1" stroke-linecap="butt" stroke-linejoin="miter" stroke-miterlimit="10" stroke-dasharray="" stroke-dashoffset="0" font-family="Sans Serif" font-weight="normal" text-anchor="start" style="mix-blend-mode: normal"><tspan x="0" dy="0">.</tspan></text><text transform="translate(243.25003,174.99265) scale(0.1,0.1)" font-size="40" xml:space="preserve" fill="#000000" fill-rule="nonzero" stroke="none" stroke-width="1" stroke-linecap="butt" stroke-linejoin="miter" stroke-miterlimit="10" stroke-dasharray="" stroke-dashoffset="0" font-family="Sans Serif" font-weight="normal" text-anchor="start" style="mix-blend-mode: normal"><tspan x="0" dy="0">Barrio Verde</tspan></text><path d="M237.5,166.33891c0,-1.38071 1.11929,-2.5 2.5,-2.5c1.38071,0 2.5,1.11929 2.5,2.5c0,1.38071 -1.11929,2.5 -2.5,2.5c-1.38071,0 -2.5,-1.11929 -2.5,-2.5z" fill="#cf5c23" stroke="none" stroke-width="0.5" stroke-linecap="butt"/><path d="M237.5,173.83891c0,-1.38071 1.11929,-2.5 2.5,-2.5c1.38071,0 2.5,1.11929 2.5,2.5c0,1.38071 -1.11929,2.5 -2.5,2.5c-1.38071,0 -2.5,-1.11929 -2.5,-2.5z" fill="#cf5c23" stroke="none" stroke-width="0.5" stroke-linecap="butt"/><text transform="translate(243.25003,167.4926) scale(0.1,0.1)" font-size="40" xml:space="preserve" fill="#000000" fill-rule="nonzero" stroke="none" stroke-width="1" stroke-linecap="butt" stroke-linejoin="miter" stroke-miterlimit="10" stroke-dasharray="" stroke-dashoffset="0" font-family="Sans Serif" font-weight="normal" text-anchor="start" style="mix-blend-mode: normal"><tspan x="0" dy="0">Jarama</tspan></text><path d="M237.5,181.33891c0,-1.38071 1.11929,-2.5 2.5,-2.5c1.38071,0 2.5,1.11929 2.5,2.5c0,1.38071 -1.11929,2.5 -2.5,2.5c-1.38071,0 -2.5,-1.11929 -2.5,-2.5z" fill="#cf5c23" stroke="none" stroke-width="0.5" stroke-linecap="butt"/><text transform="translate(231.16602,182.19072) scale(0.1,0.1)" font-size="40" xml:space="preserve" data-paper-data="{&quot;index&quot;:null}" fill="#ff0000" fill-rule="nonzero" stroke="none" stroke-width="1" stroke-linecap="butt" stroke-linejoin="miter" stroke-miterlimit="10" stroke-dasharray="" stroke-dashoffset="0" font-family="Serif" font-weight="normal" text-anchor="start" style="mix-blend-mode: normal"><tspan x="0" dy="0">C</tspan></text><path d="M242.875,170.08891h-5.75" fill="none" stroke="#000000" stroke-width="1" stroke-linecap="round"/><path d="M246.625,170.08891h-5.75" fill="none" stroke="#000000" stroke-width="1" stroke-linecap="round"/><path d="M244.625,170.08891h5.75" fill="none" stroke="#000000" stroke-width="1" stroke-linecap="round"/><path d="M235.375,170.08891h-5.75" fill="none" stroke="#000000" stroke-width="1" stroke-linecap="round"/><path d="M239.125,170.08891h-5.75" fill="none" stroke="#000000" stroke-width="1" stroke-linecap="round"/><path d="M240,188.85207v-15.02632" fill="none" stroke="#cf5c23" stroke-width="0.5" stroke-linecap="round"/><path d="M240,196.35207l-4,-7.02632h8z" data-paper-data="{&quot;index&quot;:null}" fill="#cf5c23" stroke="#cf5c23" stroke-width="0.5" stroke-linecap="round"/><path d="M320,180.34814c0,-1.38071 1.11929,-2.5 2.5,-2.5c1.38071,0 2.5,1.11929 2.5,2.5c0,1.38071 -1.11929,2.5 -2.5,2.5c-1.38071,0 -2.5,-1.11929 -2.5,-2.5z" fill="none" stroke="none" stroke-width="0.5" stroke-linecap="butt"/><path d="M155,180.34814c0,-1.38071 1.11929,-2.5 2.5,-2.5c1.38071,0 2.5,1.11929 2.5,2.5c0,1.38071 -1.11929,2.5 -2.5,2.5c-1.38071,0 -2.5,-1.11929 -2.5,-2.5z" fill="none" stroke="none" stroke-width="0.5" stroke-linecap="butt"/></g></g></svg>